<?xml version="1.0" standalone="no"?>
<!DOCTYPE svg PUBLIC "-//W3C//DTD SVG 20010904//EN"
 "http://www.w3.org/TR/2001/REC-SVG-20010904/DTD/svg10.dtd">
<svg version="1.0" xmlns="http://www.w3.org/2000/svg"
 width="400.000000pt" height="400.000000pt" viewBox="0 0 400.000000 400.000000"
 preserveAspectRatio="xMidYMid meet">
<metadata>
Created by potrace 1.16, written by Peter Selinger 2001-2019
</metadata>
<g transform="translate(0.000000,400.000000) scale(0.100000,-0.100000)"
fill="#000000" stroke="none">
<path d="M832 3167 c-114 -114 -152 -158 -152 -177 0 -20 105 -130 482 -507
l483 -483 -483 -483 c-380 -380 -482 -487 -482 -507 0 -36 294 -330 330 -330
20 0 130 105 507 482 l483 483 483 -483 c380 -380 487 -482 507 -482 36 0 330
294 330 330 0 20 -105 130 -482 507 l-483 483 483 483 c380 380 482 487 482
507 0 36 -294 330 -330 330 -20 0 -130 -105 -507 -482 l-483 -483 -483 483
c-380 380 -487 482 -507 482 -19 0 -62 -37 -178 -153z"/>
</g>
</svg>
