<?xml version="1.0" standalone="no"?>
<!DOCTYPE svg PUBLIC "-//W3C//DTD SVG 20010904//EN"
 "http://www.w3.org/TR/2001/REC-SVG-20010904/DTD/svg10.dtd">
<svg version="1.0" xmlns="http://www.w3.org/2000/svg"
 width="100.000000pt" height="100.000000pt" viewBox="0 0 100.000000 100.000000"
 preserveAspectRatio="xMidYMid meet">
<metadata>
Created by potrace 1.16, written by Peter Selinger 2001-2019
</metadata>
<g transform="translate(0.000000,100.000000) scale(0.100000,-0.100000)"
fill="#000000" stroke="none">
<path d="M419 831 c-25 -25 -29 -37 -29 -81 0 -44 4 -56 29 -81 25 -25 37 -29
81 -29 44 0 56 4 81 29 25 25 29 37 29 81 0 44 -4 56 -29 81 -25 25 -37 29
-81 29 -44 0 -56 -4 -81 -29z"/>
<path d="M419 581 c-25 -25 -29 -37 -29 -81 0 -44 4 -56 29 -81 25 -25 37 -29
81 -29 44 0 56 4 81 29 25 25 29 37 29 81 0 74 -36 110 -110 110 -44 0 -56 -4
-81 -29z"/>
<path d="M419 331 c-25 -25 -29 -37 -29 -81 0 -44 4 -56 29 -81 25 -25 37 -29
81 -29 44 0 56 4 81 29 25 25 29 37 29 81 0 74 -36 110 -110 110 -44 0 -56 -4
-81 -29z"/>
</g>
</svg>
